<svg xmlns="http://www.w3.org/2000/svg" viewBox="0 0 294 176" shape-rendering="crispEdges">
<rect x="59" y="0" width="29" height="29" fill="currentColor"/>
<rect x="59" y="59" width="29" height="29" fill="currentColor"/>
<rect x="59" y="132" width="29" height="44" fill="currentColor"/>
<rect x="205" y="0" width="30" height="29" fill="currentColor"/>
<rect x="205" y="59" width="30" height="29" fill="currentColor"/>
<rect x="205" y="132" width="30" height="44" fill="currentColor"/>
<rect x="44" y="29" width="59" height="15" fill="currentColor"/>
<rect x="191" y="29" width="58" height="15" fill="currentColor"/>
<rect x="44" y="44" width="44" height="15" fill="currentColor"/>
<rect x="103" y="44" width="88" height="15" fill="currentColor"/>
<rect x="205" y="44" width="44" height="15" fill="currentColor"/>
<rect x="29" y="59" width="15" height="29" fill="currentColor"/>
<rect x="103" y="59" width="14" height="29" fill="currentColor"/>
<rect x="132" y="59" width="29" height="29" fill="currentColor"/>
<rect x="176" y="59" width="15" height="29" fill="currentColor"/>
<rect x="249" y="59" width="15" height="29" fill="currentColor"/>
<rect x="0" y="73" width="15" height="15" fill="currentColor"/>
<rect x="0" y="103" width="15" height="14" fill="currentColor"/>
<rect x="279" y="73" width="15" height="15" fill="currentColor"/>
<rect x="279" y="103" width="15" height="14" fill="currentColor"/>
<rect x="0" y="88" width="294" height="15" fill="currentColor"/>
<rect x="0" y="117" width="294" height="15" fill="currentColor"/>
</svg>